<svg id="twitch" viewBox="0 0 248 82" xmlns="http://www.w3.org/2000/svg">
<g clip-path="url(#clip0_274_490)">
<path d="M235.312 12.731H219.715V0.0136719H192.779L180.031 12.731H165.843L158.765 19.7928V12.731H146.017V0.0136719H97.8145V12.731H39.6833L26.9358 0.0136719H0V56.57L12.7475 69.2874L34.0143 82.0047H52.4309V79.1613L59.5093 82.0047H93.8681L99.9444 74.943L100.727 82.0047H123.216L123.685 74.943L131.798 82.0047H151.655L153.064 74.943L160.143 82.0047H182.819L189.897 74.943V82.0047H202.645L212.574 74.943V82.0047H226.762L248.029 67.85V25.4796L235.312 12.731ZM34.0143 33.9475H21.2668V48.1022H34.0143V63.663H15.5977L5.66905 53.7578V5.6693H21.2668V18.3867H34.0143V33.9475ZM97.8145 53.7578L87.8859 63.663H39.6833V18.3867H55.281V48.0709H60.9501V18.3867H76.5478V48.0709H82.2168V18.3867H97.8145V53.7578ZM119.081 63.663H103.484V18.3867H119.081V63.663ZM119.081 12.731H103.484V5.6693H119.081V12.731ZM153.096 33.9475H140.317V48.1022H153.064V63.663H134.648L124.75 53.7578V5.6693H140.317V18.3867H153.064V33.9475H153.096ZM192.779 33.9475H174.362V48.1022H192.779V63.663H168.693L158.765 53.7578V28.2918L168.693 18.3867H192.779V33.9475ZM242.391 63.663H226.793V33.9787H214.046V63.663H198.448V5.6693H214.046V18.3867H232.462L242.391 28.2918V63.663Z" />
</g>
<defs>
<clipPath id="clip0_274_490">
<rect width="247.944" height="81.9972" fill="white"/>
</clipPath>
</defs>
</svg>
