<svg id="vk" width="138" height="82" viewBox="0 0 138 82" xmlns="http://www.w3.org/2000/svg">
<g clip-path="url(#clip0_274_492)">
<path fill-rule="evenodd" clip-rule="evenodd" d="M134.854 5.54931C135.806 2.36053 134.854 0 130.301 0H115.192C111.343 0 109.604 2.02922 108.611 4.26551C108.611 4.26551 100.953 22.9841 90.0667 35.1594C86.5483 38.6795 84.934 39.7976 83.0299 39.7976C82.0778 39.7976 80.6291 38.6795 80.6291 35.4907V5.59072C80.6291 1.73933 79.5528 0.0414127 76.3656 0.0414127H52.6473C50.2465 0.0414127 48.7977 1.82216 48.7977 3.52008C48.7977 7.1644 54.2202 7.99266 54.7997 18.2216V40.4602C54.7997 45.3469 53.9305 46.2166 51.985 46.2166C46.8522 46.2166 34.4343 27.4152 27.0249 5.88061C25.5761 1.69792 24.1274 0 20.2778 0H5.16927C0.864374 0 -0.00488281 2.02922 -0.00488281 4.26551C-0.00488281 8.28255 5.12787 28.1192 23.8376 54.3335C36.297 72.2652 53.8891 81.9558 69.8668 81.9558C79.4701 81.9558 80.6291 79.8023 80.6291 76.0752V62.5332C80.6291 58.2263 81.5397 57.3566 84.5614 57.3566C86.7967 57.3566 90.6462 58.4748 99.5872 67.13C109.811 77.359 111.508 81.9558 117.262 81.9558H132.371C136.675 81.9558 138.828 79.8023 137.586 75.5368C136.22 71.3127 131.336 65.1422 124.837 57.8536C121.319 53.7123 116.062 49.1983 114.447 46.962C112.212 44.0631 112.833 42.8208 114.447 40.2532C114.447 40.2532 132.826 14.3288 134.771 5.54931H134.854Z" />
</g>
<defs>
<clipPath id="clip0_274_492">
<rect width="137.964" height="81.9972" fill="white" transform="translate(0.0361328)"/>
</clipPath>
</defs>
</svg>
