<svg id="instagram" width="46" height="46" viewBox="0 0 46 46"  xmlns="http://www.w3.org/2000/svg">
<g clip-path="url(#clip0_402_1408)">
<path d="M45.2096 13.8136C45.1844 11.9249 44.8303 10.055 44.163 8.28747C43.5844 6.79658 42.7006 5.44258 41.5681 4.31199C40.4356 3.1814 39.0794 2.29908 37.586 1.7214C35.8383 1.06643 33.9919 0.712279 32.1256 0.674022C29.7226 0.566791 28.9607 0.536865 22.8608 0.536865C16.7609 0.536865 15.979 0.536865 13.5935 0.674022C11.728 0.712561 9.8825 1.06671 8.13559 1.7214C6.64198 2.29868 5.28552 3.18086 4.153 4.3115C3.02047 5.44214 2.13682 6.79635 1.55858 8.28747C0.901206 10.0309 0.547232 11.8738 0.511953 13.7363C0.404543 16.1378 0.37207 16.8984 0.37207 22.9882C0.37207 29.0779 0.37207 29.856 0.511953 32.24C0.549422 34.1054 0.901628 35.9458 1.55858 37.6939C2.13779 39.1846 3.0221 40.5382 4.155 41.6684C5.2879 42.7985 6.64449 43.6803 8.13808 44.2575C9.88021 44.9387 11.726 45.3182 13.596 45.3796C16.0015 45.4869 16.7634 45.5193 22.8633 45.5193C28.9632 45.5193 29.745 45.5193 32.1305 45.3796C33.9969 45.343 35.8433 44.9896 37.591 44.3348C39.084 43.7564 40.4399 42.8739 41.5723 41.7434C42.7047 40.6128 43.5887 39.2592 44.168 37.7687C44.8249 36.0231 45.1772 34.1827 45.2146 32.3148C45.322 29.9158 45.3545 29.1552 45.3545 23.063C45.3495 16.9732 45.3495 16.2002 45.2096 13.8136ZM22.8458 34.5044C16.4661 34.5044 11.2979 29.3448 11.2979 22.9757C11.2979 16.6067 16.4661 11.4471 22.8458 11.4471C25.9085 11.4471 28.8457 12.6617 31.0114 14.8237C33.177 16.9858 34.3937 19.9181 34.3937 22.9757C34.3937 26.0333 33.177 28.9657 31.0114 31.1277C28.8457 33.2897 25.9085 34.5044 22.8458 34.5044ZM34.8533 13.7089C34.4996 13.7092 34.1493 13.6399 33.8224 13.5049C33.4956 13.37 33.1986 13.172 32.9485 12.9223C32.6984 12.6726 32.5 12.3761 32.3648 12.0498C32.2296 11.7235 32.1602 11.3738 32.1605 11.0206C32.1605 10.6678 32.2301 10.3184 32.3654 9.99235C32.5007 9.66635 32.6989 9.37013 32.9488 9.12062C33.1988 8.8711 33.4955 8.67318 33.822 8.53814C34.1486 8.40311 34.4986 8.3336 34.852 8.3336C35.2055 8.3336 35.5555 8.40311 35.882 8.53814C36.2086 8.67318 36.5053 8.8711 36.7552 9.12062C37.0051 9.37013 37.2034 9.66635 37.3386 9.99235C37.4739 10.3184 37.5435 10.6678 37.5435 11.0206C37.5435 12.5069 36.3395 13.7089 34.8533 13.7089Z" />
<path d="M22.863 30.6225C27.0573 30.6225 30.4574 27.2223 30.4574 23.028C30.4574 18.8337 27.0573 15.4336 22.863 15.4336C18.6687 15.4336 15.2686 18.8337 15.2686 23.028C15.2686 27.2223 18.6687 30.6225 22.863 30.6225Z" />
</g>
<defs>
<clipPath id="clip0_402_1408">
<rect width="44.9824" height="44.9824" fill="white" transform="translate(0.37207 0.536865)"/>
</clipPath>
</defs>
</svg>
