<svg id="vk" width="76" height="46" viewBox="0 0 76 46" xmlns="http://www.w3.org/2000/svg">
<path fill-rule="evenodd" clip-rule="evenodd" d="M74.2395 3.58113C74.7617 1.83181 74.2395 0.536865 71.7416 0.536865H63.4533C61.3415 0.536865 60.3878 1.65007 59.8428 2.87686C59.8428 2.87686 55.6419 13.1456 49.6697 19.8248C47.7396 21.7558 46.854 22.3692 45.8094 22.3692C45.2872 22.3692 44.4924 21.7558 44.4924 20.0065V3.60385C44.4924 1.49104 43.902 0.559584 42.1535 0.559584H29.142C27.8249 0.559584 27.0302 1.53647 27.0302 2.46793C27.0302 4.46715 30.0049 4.92152 30.3228 10.533V22.7327C30.3228 25.4135 29.8459 25.8906 28.7787 25.8906C25.9629 25.8906 19.1506 15.5764 15.0859 3.76288C14.2912 1.46832 13.4964 0.536865 11.3846 0.536865H3.09627C0.734674 0.536865 0.257812 1.65007 0.257812 2.87686C0.257812 5.08055 3.07357 15.9627 13.3374 30.3434C20.1725 40.1805 29.8232 45.4966 38.5884 45.4966C43.8566 45.4966 44.4924 44.3152 44.4924 42.2706V34.8416C44.4924 32.4789 44.992 32.0018 46.6496 32.0018C47.8758 32.0018 49.9876 32.6152 54.8925 37.3634C60.5013 42.9748 61.4323 45.4966 64.5887 45.4966H72.877C75.2386 45.4966 76.4194 44.3152 75.7382 41.9752C74.9888 39.658 72.3093 36.2729 68.7442 32.2745C66.814 30.0026 63.9302 27.5263 63.0446 26.2995C61.8183 24.7092 62.159 24.0277 63.0446 22.6192C63.0446 22.6192 73.1268 8.39743 74.194 3.58113H74.2395Z" />
</svg>
